<?xml version="1.0"?>
<svg xmlns="http://www.w3.org/2000/svg" id="Out_line" data-name="Out line" viewBox="0 0 512 512" width="512" height="512"><path d="M472.249,152.78809a95.98713,95.98713,0,0,0-53.3789-30.90308C402.11865,60.92139,346.21143,16,280,16A144.01978,144.01978,0,0,0,158.91406,82.0249a55.98613,55.98613,0,0,0-69.293,40.615,96.00716,96.00716,0,0,0-51.6748,154.45386l12.33594-10.1875A80.00383,80.00383,0,0,1,112,136c2.42969,0,4.87988.10938,7.28223.32617l1.43554-15.93555C117.83984,120.13184,114.90625,120,112,120q-2.369,0-4.71045.1167A39.97872,39.97872,0,0,1,150.707,96.56885c-2.01025,4.10058-3.85351,8.29785-5.47949,12.60693l14.9707,5.64844A128.023,128.023,0,0,1,408,160h16a144.55533,144.55533,0,0,0-1.50342-20.76978A80.39611,80.39611,0,0,1,480,216a79.479,79.479,0,0,1-14.541,46.002l13.082,9.21289a96.01412,96.01412,0,0,0-6.292-118.42675Z"/><circle cx="88" cy="360" r="8"/><circle cx="112" cy="360" r="8"/><circle cx="136" cy="360" r="8"/><rect x="160" y="352" width="48" height="16"/><circle cx="88" cy="296" r="8"/><circle cx="112" cy="296" r="8"/><circle cx="136" cy="296" r="8"/><rect x="160" y="288" width="48" height="16"/><path d="M208,192H88a32.03667,32.03667,0,0,0-32,32v16a31.925,31.925,0,0,0,10.86816,24A31.925,31.925,0,0,0,56,288v16a31.925,31.925,0,0,0,10.86816,24A31.925,31.925,0,0,0,56,352v16a32.03667,32.03667,0,0,0,32,32H208a32.03667,32.03667,0,0,0,32-32V352a31.925,31.925,0,0,0-10.86816-24A31.925,31.925,0,0,0,240,304V288a31.925,31.925,0,0,0-10.86816-24A31.925,31.925,0,0,0,240,240V224A32.03667,32.03667,0,0,0,208,192Zm16,160v16a16.01833,16.01833,0,0,1-16,16H88a16.01833,16.01833,0,0,1-16-16V352a16.01833,16.01833,0,0,1,16-16H208A16.01833,16.01833,0,0,1,224,352Zm0-64v16a16.01833,16.01833,0,0,1-16,16H88a16.01833,16.01833,0,0,1-16-16V288a16.01833,16.01833,0,0,1,16-16H208A16.01833,16.01833,0,0,1,224,288ZM88,256a16.01833,16.01833,0,0,1-16-16V224a16.01833,16.01833,0,0,1,16-16H208a16.01833,16.01833,0,0,1,16,16v16a16.01833,16.01833,0,0,1-16,16Z"/><circle cx="88" cy="232" r="8"/><circle cx="112" cy="232" r="8"/><circle cx="136" cy="232" r="8"/><rect x="160" y="224" width="48" height="16"/><path d="M424,232H360a32.03667,32.03667,0,0,0-32,32v48a32.03667,32.03667,0,0,0,32,32h64a32.03667,32.03667,0,0,0,32-32V264A32.03667,32.03667,0,0,0,424,232Zm16,32v4.30518A31.792,31.792,0,0,0,424,264H406.833a15.91089,15.91089,0,0,1-14.31055-8.84375l-2.7334-5.46777c-.28833-.57666-.6001-1.13526-.9187-1.68848H424A16.01833,16.01833,0,0,1,440,264Zm0,48a16.01833,16.01833,0,0,1-16,16H360a16.01833,16.01833,0,0,1-16-16V264a16.01833,16.01833,0,0,1,16-16h1.167a15.91089,15.91089,0,0,1,14.31055,8.84375l2.7334,5.46777A31.8263,31.8263,0,0,0,406.833,280H424a16.01833,16.01833,0,0,1,16,16Z"/><path d="M424,384H360a32.03667,32.03667,0,0,0-32,32v48a32.03667,32.03667,0,0,0,32,32h64a32.03667,32.03667,0,0,0,32-32V416A32.03667,32.03667,0,0,0,424,384Zm16,32v4.30518A31.792,31.792,0,0,0,424,416H406.833a15.91089,15.91089,0,0,1-14.31055-8.84375l-2.7334-5.46777c-.28833-.57666-.6001-1.13526-.9187-1.68848H424A16.01833,16.01833,0,0,1,440,416Zm0,48a16.01833,16.01833,0,0,1-16,16H360a16.01833,16.01833,0,0,1-16-16V416a16.01833,16.01833,0,0,1,16-16h1.167a15.91089,15.91089,0,0,1,14.31055,8.84375l2.7334,5.46777A31.8263,31.8263,0,0,0,406.833,432H424a16.01833,16.01833,0,0,1,16,16Z"/><path d="M248,280v16h24V448a8.00039,8.00039,0,0,0,8,8h32V440H288V296h24V280H248Z"/></svg>
